<?xml version="1.0" standalone="no"?>
<!DOCTYPE svg PUBLIC "-//W3C//DTD SVG 20010904//EN"
 "http://www.w3.org/TR/2001/REC-SVG-20010904/DTD/svg10.dtd">
<svg version="1.0" xmlns="http://www.w3.org/2000/svg"
 width="563.000000pt" height="352.000000pt" viewBox="0 0 563.000000 352.000000"
 preserveAspectRatio="xMidYMid meet">

<g transform="translate(0.000000,352.000000) scale(0.100000,-0.100000)"
fill="#000000" stroke="none">
<path d="M0 1760 l0 -1760 2815 0 2815 0 0 1760 0 1760 -2815 0 -2815 0 0
-1760z m1115 785 c115 -8 213 -19 218 -24 6 -6 9 -50 8 -99 l-2 -89 76 -6 c43
-4 80 -5 85 -2 4 2 11 42 15 87 4 46 12 86 18 90 22 14 124 9 137 -7 15 -18 5
-116 -13 -127 -9 -6 -9 -8 1 -8 7 0 12 -13 12 -30 0 -16 -5 -30 -11 -30 -6 0
-8 -7 -5 -16 4 -11 -1 -18 -14 -21 -11 -3 -20 -10 -20 -15 0 -6 9 -8 20 -5 13
3 20 0 20 -9 0 -8 -6 -14 -12 -14 -10 0 -10 -2 -1 -8 7 -5 11 -29 9 -67 -2
-33 -4 -78 -5 -101 -1 -35 -5 -42 -32 -55 -31 -15 -28 -16 162 -55 186 -38
194 -41 197 -64 2 -14 9 -31 14 -37 16 -20 16 -114 0 -153 -7 -19 -22 -54 -32
-77 -19 -41 -19 -42 2 -69 12 -14 22 -36 23 -48 1 -11 9 -22 17 -24 12 -2 17
10 21 55 12 133 17 155 43 215 16 35 31 65 35 68 3 3 12 16 20 31 l14 25 183
-40 c110 -24 181 -44 179 -50 -2 -6 -16 -17 -31 -24 -33 -16 -82 -91 -97 -146
-6 -21 -12 -66 -13 -100 -2 -33 -4 -67 -5 -74 -1 -10 -77 -53 -101 -57 -13 -2
-50 -31 -50 -38 0 -5 11 -6 24 -3 20 5 23 3 19 -13 -6 -23 15 -38 23 -17 7 18
39 22 49 6 3 -6 -1 -13 -9 -16 -20 -8 -21 -24 -2 -24 7 0 21 10 29 22 16 23
16 22 18 -17 1 -23 4 -31 6 -18 6 29 38 39 59 19 8 -9 13 -20 9 -25 -3 -5 -1
-12 5 -16 5 -3 10 1 10 9 0 17 26 22 32 7 4 -14 136 -22 144 -10 3 6 12 8 19
5 7 -2 15 4 18 15 3 11 14 19 26 19 12 0 24 8 27 18 6 17 12 34 33 85 6 15 11
66 11 112 0 90 -22 170 -61 219 -11 14 -17 27 -12 27 18 3 49 -3 59 -12 6 -5
13 -6 16 -3 10 9 179 -47 184 -61 3 -8 31 -16 67 -20 42 -5 69 -14 84 -29 24
-22 29 -42 13 -48 -5 -2 -10 -52 -11 -113 0 -60 -5 -115 -10 -121 -5 -6 -10
-25 -12 -42 -2 -18 -7 -35 -10 -39 -4 -3 -7 -19 -7 -34 0 -32 -56 -106 -87
-115 -12 -3 -25 -15 -28 -25 -4 -10 -15 -19 -26 -19 -10 0 -19 -4 -19 -10 0
-5 -12 -12 -27 -16 -28 -6 -53 -15 -97 -35 -32 -15 -53 -6 -59 23 -3 17 -5 15
-6 -9 l-1 -33 -146 2 c-129 1 -157 4 -233 28 -74 23 -86 30 -84 47 2 16 -2 20
-17 16 -11 -3 -20 0 -20 6 0 5 -6 8 -14 5 -7 -3 -25 9 -39 28 -15 18 -34 42
-44 53 -10 11 -20 33 -23 50 -8 48 -30 35 -51 -30 -11 -33 -29 -66 -40 -74
-10 -7 -19 -20 -19 -27 0 -9 -12 -14 -34 -14 -28 0 -35 -4 -38 -22 -7 -50 -32
-53 -453 -56 -214 -1 -400 0 -411 2 -17 5 -22 14 -22 44 l-1 39 77 16 c43 10
102 17 131 17 73 0 61 7 -24 14 -151 13 -185 19 -185 31 0 7 16 16 35 19 31 6
51 26 25 26 -5 0 -7 7 -4 15 4 9 -3 16 -20 21 -26 6 -36 37 -16 49 6 3 10 21
10 40 0 31 3 35 36 41 43 8 32 24 -23 33 l-38 6 -3 223 c-1 122 1 222 5 222 5
0 21 11 37 25 31 26 48 26 26 0 -7 -9 -11 -18 -8 -20 9 -9 25 18 31 52 7 36
-8 55 -18 23 -8 -24 -37 -26 -59 -4 -17 16 -21 70 -8 91 9 14 52 26 101 27
l36 1 9 75 c5 47 14 79 24 86 8 6 13 19 10 30 -3 11 -2 44 2 74 4 32 4 60 -2
67 -5 7 -7 16 -4 21 5 9 -61 22 -110 22 -28 0 -28 -2 -45 -222 l-12 -158 -51
0 c-28 0 -61 3 -74 6 l-23 7 3 191 3 191 -69 9 -69 9 6 53 c3 29 8 58 12 64 4
6 32 8 73 5 37 -3 161 -12 277 -20z m752 -55 c40 -5 87 -17 104 -25 24 -13 34
-14 45 -4 11 9 18 8 34 -6 17 -16 20 -16 20 -2 0 13 11 15 61 13 68 -3 83 -15
75 -63 -2 -16 -5 -34 -5 -40 -1 -15 -41 -18 -41 -3 0 6 -10 6 -27 -1 -20 -7
-28 -6 -35 3 -4 7 -8 8 -8 3 0 -6 -18 -11 -40 -12 -38 -2 -45 4 -42 37 0 3
-10 7 -24 8 -13 1 -24 -3 -24 -8 0 -6 -5 -10 -12 -10 -32 0 -65 -68 -40 -84 4
-2 52 -7 107 -11 55 -3 119 -8 143 -11 l42 -5 0 -47 c0 -75 1 -75 -161 -71
l-144 4 0 -25 c0 -28 18 -33 186 -48 55 -5 102 -12 105 -15 4 -3 3 -31 -1 -62
l-6 -55 -42 0 c-60 0 -389 30 -399 36 -12 7 -9 132 7 334 7 96 14 176 14 178
2 4 34 2 108 -8z m1472 -480 c11 -14 27 -46 35 -71 8 -25 24 -65 36 -88 15
-31 18 -46 10 -55 -8 -10 -4 -17 13 -29 13 -8 30 -29 37 -46 7 -17 16 -31 20
-31 14 0 48 49 60 86 12 35 27 43 48 22 9 -9 12 -9 12 -1 0 7 -4 15 -10 18
-18 11 -10 46 29 129 l38 83 48 6 c80 11 290 8 302 -4 8 -8 9 -20 2 -36 -11
-29 -16 -29 85 7 119 43 428 43 541 0 78 -30 187 -135 206 -198 7 -23 9 -45 5
-49 -3 -4 -90 -10 -192 -15 l-187 -8 -29 25 c-80 67 -202 48 -182 -29 11 -43
50 -56 276 -85 161 -22 219 -43 274 -103 48 -52 64 -104 64 -216 0 -81 -4
-105 -24 -147 -47 -103 -116 -159 -184 -150 -22 3 -44 1 -47 -5 -3 -5 -1 -10
4 -10 6 0 11 -4 11 -9 0 -5 -16 -9 -35 -8 -27 1 -32 4 -23 14 14 18 2 29 -16
14 -9 -8 -21 -8 -39 -2 -17 7 -28 7 -32 1 -4 -6 1 -10 9 -10 19 0 20 -9 2 -32
-18 -24 -26 -22 -26 5 0 13 -7 32 -15 43 -13 18 -14 17 -15 -17 0 -51 -20 -65
-61 -44 -26 14 -33 15 -40 3 -7 -11 -11 -10 -19 2 -6 10 -6 16 0 18 12 4 3 22
-11 22 -5 0 -9 -7 -9 -15 0 -9 -10 -20 -22 -24 -29 -11 -50 7 -50 43 0 17 -7
28 -22 32 -11 4 -24 12 -28 18 -4 6 -10 7 -15 3 -4 -5 -1 -12 7 -18 8 -5 22
-14 30 -19 13 -9 13 -11 -2 -20 -22 -13 -23 -30 -4 -30 8 0 18 -5 22 -11 10
-17 -46 -2 -68 18 -11 10 -18 12 -18 5 0 -17 -41 -8 -55 12 -7 9 -19 14 -27
11 -9 -4 -18 1 -22 10 -4 11 -12 15 -22 11 -12 -4 -15 -2 -11 9 4 8 2 17 -3
20 -4 3 -10 0 -12 -7 -2 -6 -10 -8 -16 -4 -23 14 -12 26 25 26 43 0 34 14 -14
25 -28 5 -33 4 -33 -11 0 -25 -16 -6 -24 29 -6 27 8 39 17 15 3 -7 6 -3 6 10
1 13 5 31 11 41 8 16 5 18 -16 18 -19 1 -22 -2 -14 -12 13 -16 -1 -27 -20 -15
-7 4 -19 6 -26 3 -7 -2 -18 5 -24 18 -11 20 -10 21 14 15 14 -3 26 -3 26 1 0
5 3 18 6 31 5 18 2 22 -15 22 -29 0 -26 12 6 28 33 15 79 16 88 2 4 -7 14 -5
28 5 13 9 44 15 77 15 51 0 58 -3 101 -43 26 -24 64 -48 86 -55 90 -27 182 -5
213 50 13 25 13 29 -6 55 -27 36 -66 48 -184 61 -254 26 -388 108 -414 256 -4
21 -11 35 -16 30 -5 -5 -39 -74 -76 -154 -76 -164 -81 -172 -95 -147 -15 26
-29 11 -19 -22 6 -23 5 -31 -7 -35 -11 -4 -12 -10 -6 -19 14 -17 25 -66 17
-78 -3 -6 -11 -3 -19 7 -11 16 -13 14 -17 -14 -3 -24 0 -32 14 -35 27 -7 22
-27 -7 -27 -14 0 -25 -4 -25 -10 0 -5 11 -10 25 -10 27 0 33 -14 12 -27 -8 -4
-17 -20 -21 -35 -5 -23 -3 -28 13 -28 15 0 19 -6 17 -23 -5 -44 -12 -47 -127
-47 -113 0 -139 8 -139 43 0 18 -26 41 -34 29 -3 -5 1 -20 9 -35 13 -25 12
-27 -4 -27 -22 0 -31 51 -31 166 0 56 -7 92 -29 154 -18 47 -26 82 -20 86 14
8 -10 35 -29 32 -10 -2 -20 8 -26 27 -6 17 -14 32 -17 35 -4 3 -26 45 -49 94
-28 58 -39 91 -32 94 18 6 14 19 -8 25 -13 3 -43 52 -95 158 -41 85 -75 159
-75 166 0 19 26 21 191 20 154 -2 157 -2 178 -27z m-598 -7 c7 -7 19 -11 29
-8 24 7 95 -19 95 -36 0 -8 14 -16 36 -19 39 -5 99 -50 99 -73 0 -8 7 -18 16
-21 9 -4 14 -13 10 -21 -3 -9 0 -18 8 -21 16 -6 52 -81 43 -90 -3 -4 -20 -1
-38 5 -18 6 -58 11 -89 11 -39 0 -62 5 -70 15 -7 8 -29 15 -49 15 -20 0 -95
11 -166 25 -72 14 -154 25 -183 25 -43 0 -241 36 -304 56 -26 8 -22 16 24 52
30 23 50 31 65 27 18 -4 23 -1 23 14 0 15 10 20 45 25 25 4 45 11 45 16 0 14
44 18 203 17 112 0 150 -3 158 -14z"/>
<path d="M997 2463 c-12 -12 -7 -22 8 -17 8 4 15 10 15 15 0 11 -14 12 -23 2z"/>
<path d="M980 2304 c0 -8 5 -12 10 -9 6 3 10 10 10 16 0 5 -4 9 -10 9 -5 0
-10 -7 -10 -16z"/>
<path d="M985 2250 c-3 -5 -1 -10 4 -10 6 0 11 5 11 10 0 6 -2 10 -4 10 -3 0
-8 -4 -11 -10z"/>
<path d="M1353 2193 c-28 -5 -42 -51 -36 -114 2 -24 5 -45 7 -46 5 -5 157 -36
160 -32 2 2 6 44 7 93 l4 88 -30 4 c-16 1 -43 5 -60 7 -16 2 -40 2 -52 0z"/>
<path d="M1558 1983 c7 -3 16 -2 19 1 4 3 -2 6 -13 5 -11 0 -14 -3 -6 -6z"/>
<path d="M1065 1940 c3 -5 8 -10 11 -10 2 0 4 5 4 10 0 6 -5 10 -11 10 -5 0
-7 -4 -4 -10z"/>
<path d="M1130 1871 c0 -12 6 -21 15 -21 8 0 15 4 15 9 0 5 -7 14 -15 21 -13
10 -15 9 -15 -9z"/>
<path d="M1290 1845 c0 -7 -8 -18 -17 -24 -10 -5 -15 -13 -11 -17 4 -4 15 -1
24 6 10 9 18 10 22 3 9 -14 68 -27 82 -18 17 11 -10 36 -31 30 -12 -4 -22 1
-29 15 -12 23 -40 27 -40 5z"/>
<path d="M1205 1807 c-4 -10 -3 -23 4 -30 16 -16 23 -3 12 24 -8 22 -10 22
-16 6z"/>
<path d="M1346 1757 c-13 -10 -17 -24 -14 -57 l3 -45 152 -3 c127 -2 154 0
167 13 24 24 20 61 -10 84 -24 19 -40 21 -153 21 -88 0 -133 -4 -145 -13z"/>
<path d="M1180 1750 c0 -5 5 -10 10 -10 6 0 10 5 10 10 0 6 -4 10 -10 10 -5 0
-10 -4 -10 -10z"/>
<path d="M2043 1404 c39 -12 13 -22 -45 -17 -54 5 -61 4 -55 -10 4 -10 1 -17
-6 -17 -15 0 44 -49 59 -50 7 0 15 12 18 26 6 23 11 26 37 20 28 -5 30 -4 27
22 -2 21 -9 27 -28 29 -14 1 -18 0 -7 -3z"/>
<path d="M1330 1322 c0 -45 4 -61 16 -66 31 -12 339 -7 352 6 16 16 15 70 -2
94 -13 17 -30 19 -190 22 l-176 3 0 -59z"/>
<path d="M2116 1335 c4 -10 0 -15 -15 -15 -12 0 -21 -6 -21 -13 0 -8 11 -13
28 -12 15 0 27 5 26 13 -3 36 -5 42 -14 42 -5 0 -7 -7 -4 -15z"/>
<path d="M2140 1280 c0 -5 7 -10 16 -10 8 0 12 5 9 10 -3 6 -10 10 -16 10 -5
0 -9 -4 -9 -10z"/>
<path d="M1960 1240 c0 -5 5 -10 10 -10 6 0 10 5 10 10 0 6 -4 10 -10 10 -5 0
-10 -4 -10 -10z"/>
<path d="M2185 1230 c3 -5 8 -10 11 -10 2 0 4 5 4 10 0 6 -5 10 -11 10 -5 0
-7 -4 -4 -10z"/>
<path d="M2390 1220 c0 -19 3 -21 12 -12 9 9 9 15 0 24 -9 9 -12 7 -12 -12z"/>
<path d="M2690 1160 c0 -5 5 -10 10 -10 6 0 10 5 10 10 0 6 -4 10 -10 10 -5 0
-10 -4 -10 -10z"/>
<path d="M1343 1125 c-15 -17 -17 -29 -4 -21 5 4 11 3 14 -1 2 -5 3 -3 1 3 -1
6 3 17 9 23 6 6 7 11 2 11 -6 -1 -16 -7 -22 -15z"/>
<path d="M2352 1085 c0 -16 2 -22 5 -12 2 9 2 23 0 30 -3 6 -5 -1 -5 -18z"/>
<path d="M2735 1010 c3 -5 8 -10 11 -10 2 0 4 5 4 10 0 6 -5 10 -11 10 -5 0
-7 -4 -4 -10z"/>
<path d="M1910 2430 c0 -13 28 -25 38 -16 3 4 0 11 -8 16 -20 13 -30 12 -30 0z"/>
<path d="M2000 2420 c0 -5 5 -10 10 -10 6 0 10 5 10 10 0 6 -4 10 -10 10 -5 0
-10 -4 -10 -10z"/>
<path d="M2030 2396 c0 -10 8 -16 22 -16 12 0 19 1 17 3 -2 1 -12 9 -21 16
-15 12 -18 11 -18 -3z"/>
<path d="M1834 2096 c-5 -13 -14 -15 -35 -11 -27 6 -29 5 -29 -25 0 -29 2 -30
22 -19 16 9 23 9 26 0 7 -22 21 -10 28 24 7 38 -1 59 -12 31z"/>
<path d="M3943 2003 c-18 -7 -16 -33 2 -33 8 0 15 2 15 4 0 2 3 11 6 20 6 16
0 19 -23 9z"/>
<path d="M3890 1930 c0 -5 5 -10 11 -10 5 0 7 5 4 10 -3 6 -8 10 -11 10 -2 0
-4 -4 -4 -10z"/>
<path d="M3940 1929 c0 -5 5 -7 10 -4 6 3 10 8 10 11 0 2 -4 4 -10 4 -5 0 -10
-5 -10 -11z"/>
<path d="M3875 1888 c-19 -11 -19 -11 0 -19 32 -12 42 -10 48 11 6 23 -16 27
-48 8z"/>
<path d="M3790 1854 c0 -9 5 -14 12 -12 18 6 21 28 4 28 -9 0 -16 -7 -16 -16z"/>
<path d="M3664 1852 c-16 -10 -28 -52 -15 -52 6 0 11 9 11 20 0 14 7 20 21 20
11 0 17 5 14 10 -7 12 -16 12 -31 2z"/>
<path d="M3730 1840 c0 -6 7 -10 15 -10 8 0 15 2 15 4 0 2 -7 6 -15 10 -8 3
-15 1 -15 -4z"/>
<path d="M3877 1834 c-8 -8 1 -24 14 -24 5 0 9 7 9 15 0 15 -12 20 -23 9z"/>
<path d="M3362 1749 c2 -6 8 -10 13 -10 5 0 11 4 13 10 2 6 -4 11 -13 11 -9 0
-15 -5 -13 -11z"/>
<path d="M3273 1710 c-11 -16 -10 -18 2 -14 8 4 15 12 15 20 0 19 -3 18 -17
-6z"/>
<path d="M3187 1704 c-4 -4 -7 -14 -7 -23 0 -11 3 -12 11 -4 6 6 10 16 7 23
-2 6 -7 8 -11 4z"/>
<path d="M3680 1584 c0 -8 5 -12 10 -9 6 3 10 10 10 16 0 5 -4 9 -10 9 -5 0
-10 -7 -10 -16z"/>
<path d="M3665 1430 c-3 -5 -1 -10 4 -10 6 0 11 5 11 10 0 6 -2 10 -4 10 -3 0
-8 -4 -11 -10z"/>
<path d="M3597 1343 c-3 -5 8 -20 24 -34 32 -30 39 -17 10 19 -20 23 -27 26
-34 15z"/>
<path d="M3940 1279 c0 -11 5 -17 10 -14 6 3 10 13 10 21 0 8 -4 14 -10 14 -5
0 -10 -9 -10 -21z"/>
<path d="M4025 1270 c3 -5 13 -10 21 -10 8 0 14 5 14 10 0 6 -9 10 -21 10 -11
0 -17 -4 -14 -10z"/>
<path d="M3556 1251 c-4 -5 4 -11 16 -13 15 -2 22 -9 20 -19 -1 -9 5 -19 14
-23 10 -4 14 -2 11 6 -2 7 2 21 11 31 14 16 13 17 -11 17 -14 0 -32 3 -40 6
-8 3 -18 1 -21 -5z"/>
<path d="M3955 1240 c3 -5 8 -10 11 -10 2 0 4 5 4 10 0 6 -5 10 -11 10 -5 0
-7 -4 -4 -10z"/>
<path d="M3550 1210 c0 -5 5 -10 10 -10 6 0 10 5 10 10 0 6 -4 10 -10 10 -5 0
-10 -4 -10 -10z"/>
<path d="M4080 1206 c0 -2 7 -9 15 -16 13 -11 14 -10 9 4 -5 14 -24 23 -24 12z"/>
<path d="M3990 1190 c0 -5 7 -10 16 -10 8 0 12 5 9 10 -3 6 -10 10 -16 10 -5
0 -9 -4 -9 -10z"/>
<path d="M4050 1151 c0 -12 5 -21 10 -21 6 0 10 6 10 14 0 8 -4 18 -10 21 -5
3 -10 -3 -10 -14z"/>
<path d="M4103 1143 c-7 -2 -13 -11 -13 -18 0 -19 27 -26 34 -9 12 32 7 39
-21 27z"/>
<path d="M4006 1131 c-4 -7 -5 -15 -2 -18 9 -9 19 4 14 18 -4 11 -6 11 -12 0z"/>
<path d="M4157 1115 c-10 -7 -14 -16 -9 -19 12 -7 42 3 42 14 0 16 -15 18 -33
5z"/>
<path d="M4045 1110 c4 -6 11 -8 16 -5 14 9 11 15 -7 15 -8 0 -12 -5 -9 -10z"/>
<path d="M3510 1075 c0 -14 5 -25 10 -25 6 0 10 11 10 25 0 14 -4 25 -10 25
-5 0 -10 -11 -10 -25z"/>
<path d="M4117 1083 c-4 -3 -7 -13 -7 -21 0 -12 3 -12 15 -2 8 7 15 16 15 21
0 11 -14 12 -23 2z"/>
<path d="M4200 1070 c0 -5 5 -10 10 -10 6 0 10 5 10 10 0 6 -4 10 -10 10 -5 0
-10 -4 -10 -10z"/>
<path d="M4050 1040 c0 -5 5 -10 10 -10 6 0 10 5 10 10 0 6 -4 10 -10 10 -5 0
-10 -4 -10 -10z"/>
<path d="M4135 1032 c6 -6 24 -14 40 -18 21 -4 27 -3 20 4 -5 6 -23 14 -40 18
-21 4 -27 3 -20 -4z"/>
<path d="M4262 998 c6 -18 28 -21 28 -4 0 9 -7 16 -16 16 -9 0 -14 -5 -12 -12z"/>
<path d="M4375 1000 c3 -5 8 -10 11 -10 2 0 4 5 4 10 0 6 -5 10 -11 10 -5 0
-7 -4 -4 -10z"/>
<path d="M2355 1950 c-3 -5 -1 -10 4 -10 6 0 11 5 11 10 0 6 -2 10 -4 10 -3 0
-8 -4 -11 -10z"/>
</g>
</svg>
